<svg xmlns="http://www.w3.org/2000/svg" viewBox="0 0 42.9 42.9"><defs><style>.cls-1{fill:#fff;}</style></defs><title>instagram-14</title><g id="Layer_2" data-name="Layer 2"><g id="iconmonstr"><path id="instagram-14" class="cls-1" d="M26.5,11.26c-1.31-.06-1.71-.07-5.05-.07s-3.74,0-5.06.07c-3.39.16-5,1.77-5.13,5.13-.06,1.32-.07,1.72-.07,5.06s0,3.73.07,5.05c.16,3.36,1.73,5,5.13,5.13,1.32.06,1.72.08,5.06.08s3.74,0,5.05-.08c3.4-.15,5-1.76,5.13-5.13.06-1.32.08-1.71.08-5.05s0-3.74-.08-5.06C31.48,13,29.9,11.42,26.5,11.26ZM21.45,27.87a6.43,6.43,0,1,1,6.42-6.42A6.42,6.42,0,0,1,21.45,27.87Zm6.68-11.6a1.5,1.5,0,1,1,1.5-1.5A1.5,1.5,0,0,1,28.13,16.27Zm-2.51,5.18a4.17,4.17,0,1,1-4.17-4.17A4.17,4.17,0,0,1,25.62,21.45ZM21.45,0A21.45,21.45,0,1,0,42.9,21.45,21.45,21.45,0,0,0,21.45,0ZM33.88,26.61c-.2,4.55-2.73,7.07-7.27,7.27-1.34.07-1.76.08-5.16.08s-3.82,0-5.16-.08c-4.55-.2-7.07-2.73-7.28-7.27-.06-1.34-.07-1.76-.07-5.16s0-3.83.07-5.16c.21-4.55,2.74-7.07,7.28-7.28,1.34-.06,1.76-.07,5.16-.07s3.82,0,5.16.07c4.55.21,7.07,2.74,7.27,7.28.07,1.33.08,1.76.08,5.16S34,25.27,33.88,26.61Z"/></g></g></svg>