<svg xmlns="http://www.w3.org/2000/svg" viewBox="0 0 42.9 42.9"><defs><style>.cls-1{fill:#fff;}</style></defs><title>twitter-4</title><g id="Layer_2" data-name="Layer 2"><g id="iconmonstr"><path id="twitter-4" class="cls-1" d="M21.45,0A21.45,21.45,0,1,0,42.9,21.45,21.45,21.45,0,0,0,21.45,0ZM32.29,17.24a14.6,14.6,0,0,1-22.46,13,10.32,10.32,0,0,0,7.6-2.12,5.16,5.16,0,0,1-4.8-3.57A5,5,0,0,0,15,24.42a5.13,5.13,0,0,1-4.11-5.09,5.19,5.19,0,0,0,2.32.64,5.15,5.15,0,0,1-1.59-6.86,14.59,14.59,0,0,0,10.58,5.37A5.13,5.13,0,0,1,30.9,13.8a10.22,10.22,0,0,0,3.26-1.25,5.18,5.18,0,0,1-2.25,2.84,10.42,10.42,0,0,0,2.94-.81A10.27,10.27,0,0,1,32.29,17.24Z"/></g></g></svg>